<?xml version="1.0" encoding="utf-8"?>
<svg viewBox="289.2163 160.1501 123.4338 100.2744" width="123.434" height="100.274" xmlns="http://www.w3.org/2000/svg">
  <g transform="matrix(1, 0, 0, 1, -231.84989929199222, 105.7175750732422)">
    <path style="opacity:0.655" fill="#0b2648" d="M 565.5,54.5 C 587.146,53.571 603.646,62.2377 615,80.5C 623.001,77.6245 631.167,75.2912 639.5,73.5C 641.675,80.7071 643.342,88.0404 644.5,95.5C 637.092,97.1855 629.759,99.1855 622.5,101.5C 618.455,141.06 596.789,158.56 557.5,154C 529.322,143.477 517.489,123.31 522,93.5C 528.86,71.7984 543.36,58.7984 565.5,54.5 Z"/>
  </g>
  <g transform="matrix(1, 0, 0, 1, -231.84989929199222, 105.7175750732422)">
    <path style="opacity:1" fill="#f775c4" d="M 617.5,97.5 C 616.101,96.1103 614.434,95.1103 612.5,94.5C 621.591,91.1377 630.924,88.1377 640.5,85.5C 642.243,88.2616 642.577,91.095 641.5,94C 635.212,95.9887 628.878,97.8221 622.5,99.5C 620.7,99.0976 619.033,98.4309 617.5,97.5 Z"/>
  </g>
  <g transform="matrix(1, 0, 0, 1, -231.84989929199222, 105.7175750732422)">
    <path style="opacity:1" fill="#f575c3" d="M 613.5,86.5 C 614.338,86.1583 614.672,85.4916 614.5,84.5C 615.364,83.3117 616.364,82.1451 617.5,81C 624.482,79.0047 631.482,77.1714 638.5,75.5C 638.779,78.1178 639.446,80.6178 640.5,83C 631.306,85.8431 622.139,88.6764 613,91.5C 613.019,89.8925 613.185,88.2259 613.5,86.5 Z"/>
  </g>
  <g transform="matrix(1, 0, 0, 1, -231.84989929199222, 105.7175750732422)">
    <path style="opacity:1" fill="#fafafb" d="M 604.5,91.5 C 604.586,92.4959 604.252,93.3292 603.5,94C 600.607,94.6309 597.774,95.4642 595,96.5C 594.235,96.4301 593.735,96.0967 593.5,95.5C 587.422,84.626 578.089,79.7927 565.5,81C 547.658,88.1836 542.491,100.684 550,118.5C 558.479,129.787 569.312,132.62 582.5,127C 592.138,120.902 596.138,112.402 594.5,101.5C 594.36,99.8762 595.027,98.7096 596.5,98C 599.264,97.4677 601.93,96.6343 604.5,95.5C 605.183,95.8627 605.85,96.1961 606.5,96.5C 608.614,122.548 596.781,137.548 571,141.5C 541.678,136.548 530.678,119.548 538,90.5C 549.273,71.1863 565.44,65.353 586.5,73C 594.745,77.0772 600.745,83.2439 604.5,91.5 Z"/>
  </g>
  <g transform="matrix(1, 0, 0, 1, -231.84989929199222, 105.7175750732422)">
    <path style="opacity:1" fill="#323744" d="M 593.5,95.5 C 590.112,97.61 586.445,99.2767 582.5,100.5C 578.301,92.1578 571.967,90.3245 563.5,95C 559.695,99.0911 558.528,103.924 560,109.5C 564.387,117.407 570.554,119.241 578.5,115C 580.765,113.242 582.432,111.075 583.5,108.5C 584.165,106.302 584.832,103.969 585.5,101.5C 587.833,100.833 590.167,100.167 592.5,99.5C 593.182,100.243 593.849,100.909 594.5,101.5C 596.138,112.402 592.138,120.902 582.5,127C 569.312,132.62 558.479,129.787 550,118.5C 542.491,100.684 547.658,88.1836 565.5,81C 578.089,79.7927 587.422,84.626 593.5,95.5 Z"/>
  </g>
  <g transform="matrix(1, 0, 0, 1, -231.84989929199222, 105.7175750732422)">
    <path style="opacity:1" fill="#f8f9fa" d="M 582.5,100.5 C 578.976,100.881 575.642,101.881 572.5,103.5C 573.333,103.833 574.167,104.167 575,104.5C 577.731,103.383 580.565,102.717 583.5,102.5C 583.5,104.5 583.5,106.5 583.5,108.5C 582.432,111.075 580.765,113.242 578.5,115C 570.554,119.241 564.387,117.407 560,109.5C 558.528,103.924 559.695,99.0911 563.5,95C 571.967,90.3245 578.301,92.1578 582.5,100.5 Z"/>
  </g>
  <g transform="matrix(1, 0, 0, 1, -231.84989929199222, 105.7175750732422)">
    <path style="opacity:1" fill="#333642" d="M 614.5,84.5 C 614.672,85.4916 614.338,86.1583 613.5,86.5C 612.255,88.6416 610.755,90.6416 609,92.5C 606.693,94.0945 605.36,93.4278 605,90.5C 604.601,90.7284 604.435,91.0618 604.5,91.5C 600.745,83.2439 594.745,77.0772 586.5,73C 565.44,65.353 549.273,71.1863 538,90.5C 530.678,119.548 541.678,136.548 571,141.5C 596.781,137.548 608.614,122.548 606.5,96.5C 607.99,94.7202 609.99,94.0535 612.5,94.5C 614.434,95.1103 616.101,96.1103 617.5,97.5C 621.337,117.466 615.004,133.632 598.5,146C 570.022,160.837 546.522,155.337 528,129.5C 514.957,97.6148 523.791,74.1148 554.5,59C 575.88,53.0519 594.047,58.2186 609,74.5C 611.619,77.406 613.453,80.7393 614.5,84.5 Z"/>
  </g>
</svg>